<?xml version="1.0" ?>
<!DOCTYPE svg PUBLIC '-//W3C//DTD SVG 1.1//EN' 'http://www.w3.org/Graphics/SVG/1.1/DTD/svg11.dtd'><svg
  enable-background="new 0 0 512 512" height="512px" id="Increase_x5F_visibility" version="1.1" viewBox="0 0 512 512"
  width="512px" xml:space="preserve" xmlns="http://www.w3.org/2000/svg" xmlns:xlink="http://www.w3.org/1999/xlink">
  <g>
    <path
      d="M149.598,236.262c1.17-2.229,1.006-4.924-0.426-6.997l-38.199-55.309c-1.265-1.831-3.349-2.924-5.573-2.924   c-2.228,0-4.31,1.093-5.574,2.924l-38.197,55.309c-2.127,3.079-1.354,7.298,1.724,9.425c3.079,2.124,7.3,1.354,9.424-1.725   l32.624-47.237l25.288,36.613h-11.453c-3.74,0-6.773,3.034-6.773,6.774v129.623H98.338V233.115c0-3.74-3.034-6.774-6.774-6.774   c-3.741,0-6.774,3.034-6.774,6.774v136.396c0,3.741,3.033,6.775,6.774,6.775h27.671c3.74,0,6.774-3.034,6.774-6.775V239.89h17.59   C146.116,239.89,148.428,238.492,149.598,236.262z"
      fill="white" />
    <path
      d="M119.234,391.283H91.563c-3.741,0-6.774,3.033-6.774,6.773v30.093c0,3.741,3.033,6.774,6.774,6.774h27.671   c3.74,0,6.774-3.033,6.774-6.774v-30.093C126.009,394.316,122.975,391.283,119.234,391.283z M112.461,421.375H98.338v-16.544   h14.123V421.375z"
      fill="white" />
    <path
      d="M119.234,449.92H91.563c-3.741,0-6.774,3.033-6.774,6.773c0,3.741,3.033,6.775,6.774,6.775h27.671   c3.74,0,6.774-3.034,6.774-6.775C126.009,452.953,122.975,449.92,119.234,449.92z"
      fill="white" />
    <path
      d="M450.373,180.224l-38.198-55.311c-1.265-1.831-3.347-2.924-5.573-2.924c-2.225,0-4.311,1.093-5.574,2.924l-38.199,55.311   c-2.127,3.079-1.354,7.298,1.724,9.425c3.079,2.122,7.3,1.354,9.424-1.725l32.626-47.239l25.285,36.615h-11.449   c-3.741,0-6.775,3.033-6.775,6.774v69.621h-14.123v-69.621c0-3.741-3.033-6.774-6.773-6.774c-3.741,0-6.774,3.033-6.774,6.774   v76.395c0,3.74,3.033,6.774,6.774,6.774h27.672c3.74,0,6.773-3.034,6.773-6.774v-69.62h17.588c2.518,0,4.829-1.397,5.999-3.628   C451.968,184.991,451.804,182.298,450.373,180.224z"
      fill="white" />
    <path
      d="M213.539,116.188c3.078,2.124,7.299,1.355,9.424-1.724l32.625-47.238l25.288,36.613h-11.452   c-3.74,0-6.774,3.034-6.774,6.774v73.494h-14.123v-73.494c0-3.74-3.033-6.774-6.774-6.774c-3.74,0-6.773,3.034-6.773,6.774v80.268   c0,3.741,3.033,6.774,6.773,6.774h27.672c3.74,0,6.774-3.033,6.774-6.774v-73.493h17.589c2.518,0,4.83-1.396,6-3.627   s1.005-4.924-0.426-6.997l-38.199-55.309c-1.265-1.832-3.35-2.925-5.574-2.925s-4.31,1.093-5.574,2.925l-38.199,55.309   C209.688,109.844,210.461,114.063,213.539,116.188z"
      fill="white" />
    <path
      d="M420.438,282.242h-27.672c-3.741,0-6.774,3.033-6.774,6.773v30.093c0,3.741,3.033,6.774,6.774,6.774h27.672   c3.74,0,6.773-3.033,6.773-6.774v-30.093C427.211,285.275,424.178,282.242,420.438,282.242z M413.662,312.334h-14.123V295.79   h14.123V312.334z"
      fill="white" />
    <path
      d="M420.438,340.879h-27.672c-3.741,0-6.774,3.033-6.774,6.773c0,3.741,3.033,6.775,6.774,6.775h27.672   c3.74,0,6.773-3.034,6.773-6.775C427.211,343.912,424.178,340.879,420.438,340.879z"
      fill="white" />
    <path
      d="M367.334,298.057c-21.506-11.235-40.201-33.391-40.414-33.646c-31.377-37.027-66.147-36.587-71.332-36.304   c-5.185-0.289-39.965-0.713-71.363,36.339c-0.072,0.086-7.241,8.625-17.869,17.82c-2.829,2.448-3.138,6.726-0.689,9.555   c2.445,2.826,6.719,3.142,9.554,0.69c11.449-9.904,19.081-18.996,19.37-19.342c28.511-33.645,59.155-31.614,60.388-31.527   c0.408,0.038,0.813,0.038,1.221,0c0.313-0.019,31.606-2.431,60.356,31.491c0.708,0.85,15.258,18.123,34.438,30.928   c-19.178,12.807-33.726,30.074-34.408,30.893c-28.511,33.646-59.142,31.625-60.387,31.527c-0.409-0.038-0.813-0.038-1.222,0   c-0.312,0.014-31.608,2.431-60.355-31.491c-0.828-0.993-20.566-24.423-44.505-36.931c-3.316-1.736-7.409-0.45-9.141,2.865   c-1.733,3.314-0.449,7.408,2.865,9.141c21.506,11.238,40.201,33.393,40.415,33.647c28.503,33.637,59.813,36.358,69.189,36.358   c0.945,0,1.667-0.028,2.142-0.055c5.2,0.293,39.965,0.715,71.363-36.34c0.186-0.221,18.811-22.337,40.385-33.611   c2.236-1.168,3.637-3.482,3.637-6.004C370.971,301.537,369.568,299.225,367.334,298.057z"
      fill="white" />
    <path
      d="M225.707,275.979c-3.109-2.083-7.314-1.245-9.396,1.866c-5.194,7.768-7.94,16.833-7.94,26.215   c0,26.037,21.181,47.22,47.217,47.22s47.219-21.183,47.219-47.22c0-26.036-21.183-47.217-47.219-47.217   c-5.551,0-10.987,0.955-16.156,2.838c-3.516,1.281-5.326,5.169-4.047,8.685c1.281,3.516,5.167,5.324,8.685,4.047   c3.679-1.341,7.555-2.021,11.519-2.021c18.566,0,33.671,15.104,33.671,33.668c0,18.567-15.104,33.672-33.671,33.672   c-18.564,0-33.669-15.104-33.669-33.672c0-6.692,1.955-13.152,5.653-18.686C229.653,282.266,228.818,278.059,225.707,275.979z" />
    <path
      d="M262.362,306.992v-5.186c0-3.741-3.034-6.775-6.774-6.775s-6.773,3.034-6.773,6.775v5.186c0,3.741,3.033,6.774,6.773,6.774   S262.362,310.733,262.362,306.992z" />
  </g>
</svg>
